<svg xmlns="http://www.w3.org/2000/svg" viewBox="0 0 2000 2000"><path d="M939 336.9c-8.4.6-11.4 1.2-15 3.1-3.5 1.9-6.7 2.6-15 3.2-23 1.6-26.5 2.1-31.2 4.4-3.1 1.6-8 2.8-14.5 3.5-6.6.7-12 2.1-16.3 4-4.1 1.7-10 3.2-15.4 3.9-9.6 1.2-11.1 1.7-14 4.9-1.5 1.6-3.1 2.1-7 2.1-7.2 0-12.6 1.7-16.2 5.1-2.7 2.6-4.2 3.1-11.2 3.8-7 .7-8.6 1.3-11.6 3.9-2.9 2.5-4.6 3.1-10.8 3.7-7.6.8-9.9 1.5-13.3 4.5-1.1 1-4.5 2.5-7.5 3.5s-6.6 2.8-8 4c-1.4 1.3-5 3-8 3.9-3.1.8-6.6 2.6-7.9 4-1.3 1.3-4.5 3-7.1 3.6-2.6.6-5.8 2.2-7 3.5a20.7 20.7 0 0 1-7.9 4.1c-3.1.8-6.7 2.6-8.1 3.9a17.5 17.5 0 0 1-4.9 3c-1.3.4-4 2.2-6.1 4.1-2 1.9-5.5 4.1-7.6 5-2.1.9-4.9 2.7-6.1 4a15.7 15.7 0 0 1-6.7 3.5c-2.7.7-5.5 2.2-6.5 3.5-1 1.3-3.8 3.2-6.2 4.3-2.4 1-7.3 4.5-10.9 7.8a66.5 66.5 0 0 1-10.6 8.1 20.6 20.6 0 0 0-5.5 3.8 14 14 0 0 1-4.2 2.9c-1.5.6-6.2 4.3-10.5 8.2-4.3 3.9-9.5 8-11.7 9.2a66.2 66.2 0 0 0-17.6 14.3c-4.1 4.1-8.2 8-9.3 8.5a969.3 969.3 0 0 0-47.6 47.4c0 .6-3.6 4.6-8 9s-8 8.7-8 9.5c0 .9-1.6 3-3.5 4.7-1.9 1.7-3.5 3.7-3.5 4.5 0 .8-3.1 4.6-6.9 8.6-4 4-7.8 9.1-9 11.8a17.3 17.3 0 0 1-4.4 6.3 8.7 8.7 0 0 0-3.2 4.2c-.3 1.4-3.9 6-8 10.3-6.1 6.4-7.6 8.6-8.1 12-.4 2.5-2 5.7-3.9 8a21 21 0 0 0-3.9 7.3 32 32 0 0 1-7.5 11.3A34.7 34.7 0 0 0 428 675c-.7 2.5-2.5 5.9-4.1 7.8-1.7 1.9-3.2 5-3.5 7.3-.4 2.4-2 5.6-4 8.1-2 2.4-3.7 5.6-4 8-.4 2.3-2 5.6-3.9 7.9-2 2.3-3.6 5.6-4 8-.4 2.2-1.9 5.5-3.5 7.2a48.6 48.6 0 0 0-7.4 18.9c.3.5-.6 3.1-2 5.8a24.8 24.8 0 0 0-2.6 6.6c0 .9-1.3 4-2.9 6.8a64.6 64.6 0 0 0-6.5 19.8c-.3 1.4-1.7 4-3.1 5.6-1.9 2.2-2.8 4.9-3.6 10.8-.6 4.5-2.1 9.9-3.5 12.6a58 58 0 0 0-3.9 15.4 59.4 59.4 0 0 1-4 16c-2.3 4.8-3.7 11.8-6.4 32.4-.4 3-1.4 6.8-2.3 8.5-.8 1.6-1.8 7-2.2 12-.4 4.9-1.1 13.5-1.7 19-.6 5.5-1.4 15.8-1.9 23a73.4 73.4 0 0 1-2.4 17.3c-1.4 3.8-1.6 8.8-1.5 36.5.1 41.6.2 44.6 2.2 48.4 1.2 2.2 1.7 5.6 1.7 10.6 0 4.1.4 8.7.9 10.3a217 217 0 0 1 2.1 23.4c1.1 19.1 1.4 21 4.1 27.2a29 29 0 0 1 2.9 12.5c0 3.2.5 9.2 1 13.3.8 6 1.5 8 3.9 10.5 2.5 2.6 3 4.1 3.5 10.5 1.4 15.7 1.7 17.4 4.7 20.8 2.5 2.8 2.9 4.1 2.9 9.2 0 7 1.1 10.2 5 14.7 2.3 2.6 3 4.4 3 7.6.1 7.7 1.6 13 4.4 14.9 2.6 1.9 3 3.3 4.1 14 .5 4.1 1.4 6.7 3.4 9.2 1.6 2 3.3 5.5 3.9 7.9a25 25 0 0 0 4 8c1.6 2 3.5 5.8 4.1 8.4.7 2.7 2.4 6 3.7 7.4a21 21 0 0 1 3.9 7.8c.8 3.2 2.4 6.2 4.3 7.9 2 1.9 3.2 4.2 3.7 7.2a17 17 0 0 0 3.5 7.7c1.6 1.7 3.5 5.6 4.4 8.6.9 3 2.3 6 3.2 6.8.8.7 2.5 3.1 3.6 5.3 1.1 2.3 3.6 5.8 5.4 7.9 1.9 2 3.4 4.3 3.4 5.1 0 .8 1.5 3.2 3.4 5.4 1.8 2.3 3.8 6.1 4.4 8.5.7 2.4 1.9 5 2.8 5.7.8.8 2.4 3 3.4 5 1 1.9 3 4.2 4.5 5 1.5.8 3.4 2.8 4.2 4.5.9 1.6 3.1 4.7 4.9 6.8 1.9 2 3.4 4.3 3.4 5.1 0 1.8 5.3 8.8 10.8 14 2.3 2.3 4.2 4.7 4.2 5.4 0 .6 3.6 5 8 9.6 4.4 4.7 8 9 8 9.7 0 1.1 4.9 6.5 14.1 15.4a239 239 0 0 0 32.9 34 58 58 0 0 1 9.9 8.8A66.5 66.5 0 0 0 575 1503c.6 0 6.3 5 12.7 11.1 7.4 7 12.7 11.2 14.5 11.6a11 11 0 0 1 5.2 3.3c1.3 1.6 4.1 3.7 6.2 4.8a57 57 0 0 1 9.9 8.1c4.7 4.8 7 6.4 11.3 7.6a28 28 0 0 1 12.1 7.9c5.2 4.9 8 6.7 12.2 7.9a21 21 0 0 1 7.8 4.1c1.2 1.3 4.2 2.9 6.6 3.5 3 .8 6.8 3.2 12.3 8 5.7 4.8 9.3 7.1 12.5 7.9 2.5.7 5.8 2.3 7.4 3.6 3 2.5 11.8 6.1 18.6 7.5 2.1.5 5.6 2.3 7.7 4 2.2 1.7 5.1 3.1 6.6 3.1 1.4 0 5 1.3 7.8 2.9 2.8 1.6 6.5 3.2 8.3 3.6 1.8.3 4.3 1.5 5.7 2.6a57.4 57.4 0 0 0 18.2 6.8c2.2.4 5.1 1.5 6.4 2.4 1.4.9 3.4 1.7 4.6 1.7a31 31 0 0 1 8.7 3.5c3.8 1.9 8.8 3.7 11.9 4.1 2.9.4 6.8 1.3 8.7 2 1.8.8 4.8 1.4 6.6 1.4 1.8 0 4.4.9 5.8 2 2.3 1.8 7.8 3.2 24.2 5.9 2.8.5 6.8 1.8 9 3a19 19 0 0 0 7 2.1c1.6 0 4.8.5 7 1.1 2.2.5 7.8 1.2 12.4 1.5 4.7.3 9.7 1.2 11.4 2.1 2 1 7.6 1.9 15.7 2.4 6.9.5 13.2 1.2 14 1.5.8.4 8 1 16 1.4 10.5.6 15.4 1.2 17.8 2.5 2.9 1.5 7.7 1.7 46.7 1.6 39.3 0 43.7-.2 46.7-1.7a42 42 0 0 1 13.3-2.6l15.5-1.3 18.5-1.6c10.5-.9 14-1.6 18.4-3.7a27 27 0 0 1 13.5-2.8 65.1 65.1 0 0 0 23-3.7c3.6-2.3 8.5-3.7 18-4.8 5.2-.6 10.8-2 13.1-3.2 5-2.5 17.5-5.7 22.5-5.7 2.6 0 4.8-.9 7.5-3 2.1-1.7 4.3-3 4.9-3 3.3 0 8.7-2.4 11.5-5 2.6-2.6 3.9-3 8.3-3 7.2 0 11.6-1.4 15.2-4.9 2-1.9 4.7-3.1 7.6-3.6 3-.5 5.6-1.7 7.7-3.8 2.6-2.4 4.5-3.2 9.3-3.8 4.6-.5 6.8-1.4 9.4-3.6 1.8-1.7 5.5-3.5 8.1-4.2a23 23 0 0 0 8.1-4.1c1.9-1.6 5-3.1 7.4-3.5 2.7-.4 5.6-1.9 7.9-4 2-1.8 4.6-3.6 5.9-4 1.3-.4 3.8-1.9 5.5-3.5 1.8-1.5 5.7-3.5 8.8-4.3 3-.9 6.4-2.6 7.5-3.8 1-1.1 3.3-2.7 5.1-3.4 1.7-.7 4.2-2.5 5.4-3.9 1.2-1.3 4.3-3.4 6.9-4.5 2.6-1.1 5.3-2.7 6-3.6.8-.9 2.7-2.3 4.4-3.2 1.7-.8 4.5-2.8 6.1-4.3 1.7-1.6 5.1-3.8 7.8-5 2.6-1.2 4.7-2.5 4.7-3 0-.4 1.6-1.5 3.6-2.6 2-1 4.2-3.1 5-4.6.8-1.5 3.1-3.6 5.2-4.7 2-1 4.6-2.9 5.7-4.1 1.1-1.3 3.9-3.1 6.2-4.1 2.2-.9 4.4-2.7 4.8-3.8.3-1.1 2.1-2.9 4-3.9 4.3-2.6 5.7-3.8 16.6-14.5a58 58 0 0 1 10.1-8.7c1.9 0 38.7-37.1 40.8-41 1-2 3-4.2 4.4-5 1.4-.7 2.6-1.7 2.6-2.1a17 17 0 0 1 3.9-4.6c2.1-2.1 4.2-4.8 4.5-6 .4-1.2 2-3.2 3.6-4.3 1.6-1.1 3.2-3 3.6-4.2a63 63 0 0 1 8.5-11 65 65 0 0 0 7.9-9.7c0-.5 1.6-2.8 3.5-5.1s3.5-4.8 3.5-5.6c0-.7 3.3-5.1 7.4-9.6 5.4-5.9 7.8-9.4 8.6-12.5.7-2.9 2.9-6.4 6.8-10.6 3.6-4 6.4-8.3 7.5-11.5.9-2.8 3.3-6.9 5.1-9.1 2-2.4 3.7-5.7 4.1-8.1.5-2.9 2-5.2 5.6-8.9 4.1-4.1 4.9-5.5 4.9-8.6 0-2 .9-4.9 1.9-6.4a26 26 0 0 0 3-6.7c.6-2.3 2.4-5.8 4-7.7 1.6-2 3.3-5.6 3.9-8 .6-2.4 2.5-6.1 4.2-8.2 1.7-2.1 3.3-5.6 3.7-7.8a16 16 0 0 1 3.3-7.1c2.9-3.3 8-16.5 8-20.7 0-1.4.5-3 1-3.5 1.4-1.4 7-17.4 7-20.1 0-1.2.4-2.4.9-2.7 1.1-.7 6.1-16 6.1-18.8 0-1.1.9-3.6 2.1-5.4 1.1-1.9 2.5-6.6 3.1-10.7.5-3.9 2.2-10.1 3.8-13.7a52 52 0 0 0 3.4-13c.8-7.9 3.1-19.3 5.7-27.8a53 53 0 0 0 1.9-13.5c0-3.9.7-10.3 1.5-14.2.8-3.8 1.5-8.6 1.5-10.5 0-1.9 1-5.3 2.3-7.5l2.2-4v-147l-2.9-6c-2.3-4.9-3-8-3.7-16.5-1.8-24.7-2-26.4-4.7-31.9a37.9 37.9 0 0 1-3.3-14c-1.7-17.7-2-19.5-4.7-22.4-2.6-2.8-2.7-3-4.7-21.7-.5-3.9-1.5-7.3-2.5-8.5-3.1-3.5-4.1-6.4-5-14.1-.6-5.9-1.3-8.2-3.3-10.2-1.3-1.5-3-5-3.6-7.7a19 19 0 0 0-4.1-8c-2.5-2.6-3.1-4.2-3.9-11.4-.7-6.9-1.3-8.7-3.6-11.1a23 23 0 0 1-4-8c-.8-2.9-2.5-6.5-3.9-7.9a21 21 0 0 1-3.7-7.5 23 23 0 0 0-3.9-8 27.4 27.4 0 0 1-4.4-8.9c-.9-3.2-2.4-6.1-3.2-6.4-1.9-.7-3.9-4.8-4.8-9.4-.3-2-1.8-4.6-3.1-5.9a21.2 21.2 0 0 1-4.2-8c-.8-3-2.9-7-4.4-8.8-1.6-1.8-2.9-3.8-2.9-4.5 0-.7-2-3.7-4.5-6.6a23.6 23.6 0 0 1-4.5-6.6c0-.8-1.3-2.9-2.9-4.7a25 25 0 0 1-3.5-5.4c-.4-1.2-1.9-3.5-3.3-5a52.1 52.1 0 0 1-5.7-8l-5.1-8.4c-1.1-1.8-5.7-7.5-10.2-12.7a54.2 54.2 0 0 1-8.3-10.7c0-.7-.9-2.1-2.1-3.2-1.2-1-3-3.7-4.1-5.9a233.8 233.8 0 0 0-20.9-23.1 218.5 218.5 0 0 1-18.9-20.3 59 59 0 0 0-14.1-14.1c-.6 0-9.8-8.5-20.3-18.9a207.5 207.5 0 0 0-23.2-20.9 22.4 22.4 0 0 1-5.4-3.7c-.7-.9-2.8-2.2-4.7-3-1.8-.8-6.6-4.5-10.6-8.3a70.5 70.5 0 0 0-10.8-8.7c-1.9-1-4.7-2.8-6.2-4.1a11 11 0 0 0-4.2-2.4c-.7 0-4.5-2.9-8.3-6.4a35 35 0 0 0-11.9-8 33 33 0 0 1-9-5 25.3 25.3 0 0 0-8.3-4.6c-3-.8-6.6-3.2-11.4-7.6a32.7 32.7 0 0 0-12.2-7.9c-2.8-.8-6.8-2.8-8.9-4.5-2.1-1.6-4.5-3-5.5-3-.9 0-4.4-1.3-7.6-2.9a98.8 98.8 0 0 0-20.2-8.5c-1.9-.3-5.2-2.2-7.5-4.1-3.2-2.8-4.9-3.5-8.3-3.5-2.5 0-4.7-.6-5.4-1.5-.7-.8-3.4-2.1-6.1-2.9-2.6-.8-6.7-2.6-9.1-4-2.4-1.3-6-2.7-8-3l-7.3-1.1c-2-.4-5-1.8-6.8-3.4-3.6-3.1-15-7.1-20.3-7.1-1.9 0-4.5-.7-5.7-1.5-1.3-.8-5.8-2.1-10.2-3-4.3-.8-8.3-1.9-8.9-2.5-.5-.5-2.7-1-4.7-1s-5.6-.9-8-2c-2.4-1.1-5.9-2-7.7-2-1.8 0-5.8-.9-8.9-2a19.5 19.5 0 0 0-7.8-1.4c-1.4.3-4-.4-6.6-1.7-3.4-1.8-6.9-2.4-16.1-3-6.4-.4-13.3-1.2-15.5-1.8-2.1-.6-6.9-1.1-10.8-1.1a24 24 0 0 1-11.5-2.2c-4.5-2.2-4.9-2.2-69.5-2.4-35.7-.1-69.7.2-75.5.5zm114.2 116.2c.9.5 5.5.9 10.3.9 6.3 0 9.2.4 11.1 1.6 1.5 1 6.2 2 11.7 2.6l19.2 1.9c17.7 1.7 20 2.1 22.9 4.2 2.6 1.8 12.3 4 24.5 5.4a17 17 0 0 1 7.1 2.5 47.3 47.3 0 0 0 16.6 3.8 18 18 0 0 1 4.9 2.6 45 45 0 0 0 18.9 6.7c1.6-.3 3.5.2 5.1 1.5 1.5 1.2 5 2.8 7.9 3.6a21 21 0 0 1 7.5 4c1.2 1.3 4.3 2.9 6.9 3.6 2.5.6 6.4 2.2 8.6 3.5 2.3 1.2 5.2 2.6 6.6 3a23 23 0 0 1 5.2 2.6 12 12 0 0 0 6.3 1.9c3 0 4.7.8 8.1 4 3.5 3.2 5.1 4 8.2 4 3.2 0 4.5.7 9.1 5.4 4.3 4.4 6.4 5.7 10.5 6.7 4 .9 6.4 2.4 11.2 7 3.4 3.2 7.4 6.1 9 6.5a37.2 37.2 0 0 1 16.4 10.8c4 4.2 6.7 6 10.5 7.1 4.1 1.2 7 3.4 16 12 6 5.8 11.4 10.5 11.8 10.5.5 0 4.3 3.4 8.4 7.5 4.1 4.2 8.8 8.2 10.4 9.1 3.8 1.9 26.9 25 26.9 26.9 0 .8 5.3 6.8 11.8 13.4 13.9 14.2 17.2 18.2 20 23.7 1.2 2.3 2.8 4.4 3.6 4.7.8.3 2.4 2.4 3.6 4.6a16 16 0 0 0 4.5 5.7c1.3.9 2.7 2.5 3.1 3.6.3 1.1 2.1 3.7 4 5.8 1.9 2 4 5.3 4.8 7.1a18 18 0 0 0 3.5 5.3c1.2 1.1 2.8 4.4 3.7 7.3 1 3.3 2.4 5.9 3.9 6.9 1.3.8 3 3.2 3.8 5.2.8 2 2.9 4.7 4.5 5.9a8.8 8.8 0 0 1 3.7 6.3c.4 2.4 1.9 5.6 3.5 7.4 1.6 1.8 3.4 5.3 4 7.8.7 2.6 2.3 5.7 3.6 6.9 1.4 1.3 3.2 4.8 4 7.9.9 3 2.7 6.7 4.1 8.1 1.3 1.4 3 5 3.8 7.9.8 3 2.6 6.6 4.2 8.2 2.3 2.4 3 4.3 3.9 11.3 1 7.2 1.6 9 4.3 12 2.4 2.8 3.1 4.5 3.1 7.8.1 6.6 1.9 13 4.6 15.8 1.9 2 2.6 4.2 3.5 11 .9 7.2 1.4 8.8 4 11.4 2.5 2.7 2.9 3.9 2.9 8.5.1 9.2 1.9 19.1 4.7 25 2 4.2 2.8 7.9 3.4 16 1.7 22.5 2.2 26.6 3.7 29.5.9 1.6 2 5.9 2.5 9.5 1.4 10.5 2.3 54.7 1.5 78.5-1.1 31.4-2 41.3-4.2 45.5a42.5 42.5 0 0 0-2.7 15.2 108 108 0 0 1-1.9 15.6c-.5 2-1 5.6-1 7.9 0 2.3-.9 5.7-1.9 7.5a23.8 23.8 0 0 0-2.6 8.3c-.4 2.7-1.4 6.5-2.1 8.4-.8 1.8-1.4 5.2-1.4 7.5s-.7 5.1-1.5 6.4c-.9 1.2-2.1 5-2.7 8.4-.6 3.5-1.7 7.5-2.4 9-.8 1.5-1.4 4.5-1.4 6.6 0 2.3-.6 4.5-1.5 5.2-.8.7-2.2 3.8-3.1 6.9-.9 3.1-2.4 6.7-3.4 8.1-1.9 2.7-6 15.5-6 18.7 0 1.1-1.3 3.7-2.9 5.7-1.6 2-3.2 5.5-3.6 7.7-.4 2.4-1.8 5.2-3.6 7a19 19 0 0 0-4 7.4c-.6 2.5-2.4 6.1-4 8.1-1.5 2-3.5 5.9-4.3 8.8-.9 2.8-2.7 6.2-4 7.5a15 15 0 0 0-3.6 7.8c-.8 3.5-1.9 5.8-3.2 6.6-1.1.7-3 3.3-4.4 5.9a20.6 20.6 0 0 1-3.4 5.3c-.6.3-2 2.5-3.1 4.8a51.5 51.5 0 0 1-5 7.5 22.8 22.8 0 0 0-4.1 7.9c-.9 3.9-2.8 6.4-11.5 15.2-8.6 8.9-10.5 11.4-11.9 15.8-1.4 4.7-3.5 7.3-20.3 24.6a252.6 252.6 0 0 0-19.5 21.3c-.3 1.1-2 2.8-3.7 3.8-1.6 1-3.5 2.8-4.1 4.1a12 12 0 0 1-4.4 4.2c-1.9 1-9.8 8.3-17.7 16a105.3 105.3 0 0 1-19 16.3c-2.6 1.2-4.7 2.5-4.7 2.9 0 .4-1.7 1.7-3.8 2.9a14.9 14.9 0 0 0-5.2 4.6 7.6 7.6 0 0 1-3.2 3.2c-1.1.3-4.2 2.6-6.9 5a20.7 20.7 0 0 1-6.4 4.4 11 11 0 0 0-4.2 2.4 47 47 0 0 1-6.8 4.4 24.3 24.3 0 0 0-6.3 4.5 18.7 18.7 0 0 1-5.5 3.8c-1.8.7-4.3 2.3-5.7 3.5a28.8 28.8 0 0 1-8.5 4.4 29.3 29.3 0 0 0-8 4 28.5 28.5 0 0 1-7.7 3.9 25.7 25.7 0 0 0-7.7 4 20.3 20.3 0 0 1-7.1 3.5c-2.8.8-6.5 2.7-8.1 4.1-1.7 1.4-5.1 3-7.5 3.6-2.4.6-6.1 2.5-8.1 4.1-2 1.6-5.7 3.4-8.1 4-2.5.6-6 2.5-7.9 4.1-3.2 2.8-6.5 3.6-19.5 4.6-.4.1-2.1 1.4-3.8 3-2.7 2.4-4.6 3-11.8 4-7.1.9-9.1 1.5-11.4 3.7-2.2 2.2-4.4 3-11.5 4-4.8.8-10.7 1.4-13 1.4-3 0-5 .7-7.2 2.5-2.3 2-5.1 2.9-12.7 4-5.4.8-11.2 1.5-13.1 1.5-1.8 0-5.7 1.2-8.6 2.7a24.4 24.4 0 0 1-12.7 2.8c-17.9.4-45.6 2.8-47.7 4.1-3.1 1.9-65.3 2-68.6.2-1.2-.7-6.5-1.6-11.7-2a301 301 0 0 1-38-3.8c-1.9-.5-4.6-.8-6.1-.5-1.6.4-4.6-.4-8.3-2.1-4.3-2-8-2.8-14.4-3.1a44 44 0 0 1-11.2-1.8c-1.4-.7-3.9-1.1-5.5-.8-2.3.3-3.7-.2-5.8-2.1-2.8-2.6-4.6-3.1-10.3-2.7a25 25 0 0 1-8.2-1.8c-2.8-1.1-5.8-1.8-6.6-1.5-.8.3-3.4-.6-5.9-2a20.7 20.7 0 0 0-5.9-2.6c-.9 0-4.2-1.4-7.4-3.1a54 54 0 0 0-13.9-4.5c-6.3-1.1-8.6-2-11-4.3a19.3 19.3 0 0 0-7.9-4.2 23 23 0 0 1-8-3.9c-3.3-2.8-14.8-7-19.3-7-1.6 0-4.2-1.5-6.9-4-3.5-3.2-5.1-4-8.2-4-3.2 0-4.5-.7-9.1-5.4-4.3-4.4-6.4-5.7-10.5-6.7-3-.6-6.4-2.3-8.1-3.9a19 19 0 0 0-7.4-4c-3.2-.8-6.6-3.1-11.5-7.6a40.2 40.2 0 0 0-11-7.6c-2.1-.6-4.5-2.2-5.4-3.5-.8-1.3-3.2-3.3-5.3-4.4a57.8 57.8 0 0 1-10.4-8.3 36.6 36.6 0 0 0-9.3-7.1c-2.7-.6-5.4-2.8-13.6-11.3-2.3-2.3-4.8-4.2-5.6-4.2-1.8 0-41-39-41-40.7 0-.8-3.7-5.1-8.2-9.7-4.6-4.6-9.6-10.3-11.3-12.6-1.6-2.3-4.8-6.1-7-8.6a68.7 68.7 0 0 1-13-16.7c-.8-1.9-1.9-3.8-2.5-4.2-.6-.3-1.9-2.4-3-4.5a15 15 0 0 0-5-5.5c-2.3-1.2-3.3-2.8-4.5-6.9-.9-3-2.3-6-3.1-6.7-.9-.7-2.6-3.3-3.9-5.8a33.6 33.6 0 0 0-5.4-7.5 14.3 14.3 0 0 1-3.6-5.6c-.3-1.5-1.7-3.8-3-5a26.3 26.3 0 0 1-4.5-8.5c-1.2-3.5-3-7.1-4.1-8-1-1-2.6-4-3.4-6.7-.8-2.7-2.6-6.3-3.9-7.9a27.2 27.2 0 0 1-4-8c-.9-2.8-2.7-6.4-4-8-1.4-1.6-3-4.9-3.6-7.2-.6-2.3-2.1-6.6-3.5-9.4a72 72 0 0 1-4.1-12.4c-1.1-5-2.4-7.9-4.5-10-3.2-3.3-3.6-4.5-4.3-13.8-.4-5.3-.9-6.8-3.4-9.5-2.6-2.6-3.1-4.1-3.6-10.1-1.5-16.7-1.7-17.9-4.4-20.8-2.2-2.3-2.8-4.1-3.4-10a74.8 74.8 0 0 0-5-25.7c-2-3.9-2.3-6.2-2.6-17.5-.1-7.2-.7-15.4-1.2-18.4-.6-3-1-10.7-1-17.1 0-8.9-.4-12.1-1.6-13.8-1.3-1.9-1.6-6.4-1.6-30.6 0-22 .2-28.8 1.3-30.7.7-1.3 1.7-7.1 2.1-12.9l1.8-22.5 1.9-22c.4-6.5 1.4-11.2 2.5-13.4a63 63 0 0 0 3.3-14.4c.9-7.3 2.2-12.5 3.8-15.7a44 44 0 0 0 3.4-10.8c.5-3.4 1.5-7 2-8.1.6-1.1 1.1-3.7 1.1-5.9s.6-4.5 1.4-5.2c2.2-1.8 6.6-14 6.6-18.4 0-2.6.8-4.7 2.5-6.8a10 10 0 0 0 2.5-5.1c.1-1.2.7-3.3 1.5-4.7.8-1.4 1.4-4 1.5-5.9 0-1.8.9-4.8 1.9-6.5 1.1-1.7 2.4-5 3-7.2.6-2.3 2.5-5.8 4.1-7.9 1.7-2.1 3.3-5.5 3.6-7.6.4-2.1 1.9-5.3 3.5-7 2.5-2.8 4.9-8.3 4.9-11.3 0-.4 1.3-2.3 2.9-4.1 1.6-1.9 3.6-5.8 4.5-8.7 1.2-4.2 2.8-6.6 7.6-11.3 4.9-4.8 6.4-7.1 7.7-11.5.8-3 3-7.1 4.7-9.2 3.7-4.3 6.6-8.7 10.1-15 1.4-2.6 5.4-7.7 8.9-11.4 3.8-3.8 6.7-7.8 7.1-9.5.4-1.7 2.4-4.7 4.6-6.9 2.1-2.1 3.9-4.4 3.9-5.2 0-.7 8.1-9.4 18.1-19.3 9.9-9.9 19.2-19.9 20.6-22.3 1.4-2.3 3.9-5 5.7-5.8a188 188 0 0 0 18.2-16.5c8.3-8.2 15.5-14.9 16.2-14.9.6 0 3.1-1.8 5.6-3.9 2.5-2.2 5.4-4.2 6.5-4.6 1-.3 2.6-1.7 3.5-3 .9-1.4 3.4-3.4 5.5-4.4 2.1-1.1 4.1-2.7 4.5-3.6.3-.9 2.6-2.5 5.1-3.6 2.5-1.1 5.2-3.1 6.1-4.4a12 12 0 0 1 5.2-3.6c2-.6 5.1-2.4 6.7-4 1.7-1.5 5-3.6 7.5-4.7s5.4-2.9 6.4-4.1c1.1-1.1 2.5-2.1 3.2-2.1.7 0 3.3-1.7 5.8-3.9 2.4-2.1 6-4.1 8-4.5 2.4-.5 4.4-1.8 6.2-4.1 2.1-2.7 3.6-3.6 8.2-4.5 3.1-.7 7.4-2.2 9.4-3.6 2-1.3 5.8-2.9 8.4-3.5 2.6-.7 6.2-2.5 8-4.1 2.3-2 5.1-3.2 9.6-4 4-.7 7.6-2.1 9.8-3.8a35 35 0 0 1 9.3-4.4c3.1-.9 5.7-2.1 5.7-2.6 0-2.1 5-4 12.9-4.9 7-.8 8.7-1.3 11.2-3.7 3-2.8 5.1-3.3 21.9-5 4.6-.5 7.3-1.4 9.3-3 2.7-2.3 4.1-2.7 14.2-3.9 2.8-.4 8-2 11.7-3.6 6.2-2.7 8-3 21.5-3.5a175.2 175.2 0 0 0 22.8-1.9 29 29 0 0 0 10.7-2.7c4-2.2 5.8-2.3 28.8-2.8 30-.7 69.9 0 72.2 1.1z"/><path d="M1333.6 666.9a21 21 0 0 1-7.6 3.6c-2.4.4-5.7 2.1-8.1 4.1-3.5 2.9-4.8 3.4-9.3 3.4-6.6 0-11.2 1.5-15.4 5.2a10.4 10.4 0 0 1-7 2.8c-6.9.1-12.1 1.7-15.5 4.7-3 2.6-4.4 3.1-11.2 3.6-5.9.4-8.5 1.1-10.4 2.7a28.7 28.7 0 0 1-16.3 5.9c-5.1.5-7.2 1.2-8.8 2.9a19.5 19.5 0 0 1-7.4 3.7c-3 .9-6.8 2.9-8.5 4.5-2.7 2.6-3.8 3-9 3-7.1 0-10.3 1.1-14.8 5-2.5 2.2-4.4 3-7.3 3-6.3 0-13.9 2-15 3.9-1.3 2.5-5.3 3.9-12.9 4.4-4.5.4-7.2 1.2-9 2.6-4.2 3.5-9 5.2-16.2 6-5.1.5-7.5 1.3-9.3 3a22.4 22.4 0 0 1-7.6 3.6c-3.2.8-6.6 2.6-8.4 4.4-2.8 2.7-3.9 3.1-8.8 3.1-6.8 0-10 1.1-14.5 5-2.7 2.4-4.3 3-8.1 3-7 .1-12.1 1.5-15.1 4.4-2.3 2.2-4.2 2.8-11.1 3.6-6.8.8-8.8 1.4-11 3.5-3 2.9-10.8 5.5-16.6 5.5-3 0-5.1.8-7.8 2.9a21 21 0 0 1-7.6 3.6c-2.4.4-5.7 2.1-8 4-3.6 3-4.7 3.4-9.8 3.3-6.5 0-10.6 1.3-14.2 4.7a27 27 0 0 1-8 3.9c-3.1.8-6.6 2.6-7.9 4-1.3 1.3-4.5 3-7.1 3.6-2.7.6-6.3 2.5-8.1 4.1-1.8 1.6-3.9 2.9-4.6 2.9-.7 0-3 1.5-5 3.4a47.5 47.5 0 0 1-7.8 5.4c-2.2 1.1-4.6 3-5.3 4.1-.6 1.1-3 3.2-5.3 4.6-5.2 3.4-22 20.2-25.3 25.4a21.8 21.8 0 0 1-5 5.6 9.8 9.8 0 0 0-3.4 4.4c-.6 1.5-2.3 4.3-4 6.2a24 24 0 0 0-4.1 7.5c-.6 2.4-3.2 6.5-6.1 9.8-3.2 3.6-5 6.6-5 8.2 0 3.1-1.4 5.9-5.1 10.2a9.5 9.5 0 0 0-2.9 6.9c0 2-.7 4.4-1.6 5.4-.8.9-2.1 4.1-2.9 6.9-.8 2.9-2.5 6.5-3.9 7.9a49.7 49.7 0 0 0-7.2 18.9c.3.5-.5 2.9-1.8 5.3s-2.6 6-3 8c-.3 2-1.8 4.6-3.1 5.9a18 18 0 0 0-3.9 7 68 68 0 0 1-4 9.6 73 73 0 0 0-4.6 12.9 47.7 47.7 0 0 1-4.4 11.5 22 22 0 0 0-3.2 7.4c-.4 2.2-1.8 5.1-3.2 6.5-2.9 2.9-7.1 14-7.2 18.9 0 1.8-.9 4.5-2.1 6.1a22.6 22.6 0 0 0-3 7.2c-.6 2.4-2.3 5.7-3.8 7.4a43.3 43.3 0 0 0-7.1 19.1 10 10 0 0 1-2 5.1 18 18 0 0 0-2.7 6.6c-.3 2.2-1.8 5.4-3.4 7.1a46 46 0 0 0-7.5 18.6c-.3 1.9-1.3 5.1-2.4 7-1 1.9-2.1 5.1-2.5 7-.4 1.9-2 5-3.6 6.8a16.2 16.2 0 0 0-3.4 6c-.3 1.5-2.1 5.8-4 9.7-1.8 3.8-4 10.1-4.8 13.8-.9 3.8-2.7 8.5-4 10.5a29 29 0 0 0-3.7 8.2c-.6 2.5-2.3 5.6-3.6 7a40.8 40.8 0 0 0-6.8 18c-.1 1.9-1.2 5.1-2.3 7a25.6 25.6 0 0 0-2.8 7c-.4 1.9-2 4.8-3.5 6.5a20 20 0 0 0-4.1 7.8c-.6 2.6-1.5 5-2 5.3-.5.3-.9 2.3-.9 4.6 0 2.5-.8 4.9-2 6.5a18 18 0 0 0-2.7 6.6c-.3 2.2-1.8 5.4-3.5 7.2a44.3 44.3 0 0 0-7.5 19 20 20 0 0 1-1.9 6.1 30 30 0 0 0-2.9 7.1c-.8 2.7-2.9 6.4-4.6 8.2-2.3 2.5-2.9 3.9-2.7 6.4l.3 3.2 6.9-.2c7.3-.3 13.6-1.8 13.6-3.4 0-1.2 5-3.6 9.4-4.5 2.3-.4 5.3-2 7.5-4 2.9-2.8 4.3-3.4 8.1-3.4 6.6-.1 11.6-1.5 14.9-4.2 1.6-1.4 5-3 7.5-3.7 2.5-.6 6.2-2.5 8.1-4.3 3.2-2.7 4.6-3.2 11.5-3.8 6.4-.6 8.4-1.2 11-3.3a25 25 0 0 1 8.5-4.2c2.9-.9 5.9-2.3 6.6-3.1 1.7-2.1 5.5-3.9 11.1-5.3 2.6-.6 6.2-2 8-3 1.8-1.1 6.6-2.7 10.6-3.6 5.1-1.2 8.4-2.6 10.6-4.6 1.8-1.6 5.4-3.3 8.2-3.9 3-.7 6.1-2.2 8-4.1 2.6-2.5 4.2-3.1 11.3-3.9 7-.8 8.8-1.4 11.6-3.9 1.9-1.6 5.1-3.2 7.4-3.6 2.5-.4 5.8-2 8.2-4.1 3-2.5 5.1-3.4 7.7-3.4 6.4-.1 12.2-1.7 14.6-3.9 1.3-1.2 5.3-3.1 9-4.2 3.8-1.2 7-2.7 7.5-3.8 1.3-2.3 5.2-3.8 11.4-4.4 3.1-.3 5.7-1.2 7.1-2.6a29 29 0 0 1 10.2-4.2c5.1-1.3 8.8-2.8 10.5-4.5 1.5-1.4 5.2-3.2 8.5-4a59 59 0 0 0 10.9-4.4c2.8-1.6 7.4-3.2 10.3-3.6a17 17 0 0 0 8.7-3.4c1.9-1.5 5.6-3.3 8.2-3.9a20 20 0 0 0 8-4.3c2.8-2.7 4.1-3.2 11-3.8 8-.7 11-1.7 13.3-4.5.7-.8 3.8-2.2 6.9-3.1 3.1-.9 7-2.9 8.6-4.4 2.5-2.4 4.2-2.9 10.7-3.5 6.4-.5 8.4-1.2 11.3-3.5 2-1.6 6-3.6 8.9-4.4 2.9-.9 6.1-2.5 7.1-3.6s4.3-2.7 7.2-3.6c2.9-.9 6.6-2.6 8.1-3.8 1.5-1.3 4.5-3.2 6.7-4.4 2.2-1.1 4.9-2.9 5.9-4.1a13 13 0 0 1 5.7-3.1c2.5-.7 6-3.2 10.6-7.8 3.7-3.8 8.4-7.8 10.3-8.9 4.3-2.6 21.3-20.2 24.6-25.4 1.3-2.1 3.2-4.3 4.2-4.8s2.4-2.9 3.1-5.2c.8-2.7 3.5-6.5 7.6-10.9 4.9-5.2 6.7-8 7.6-11.6.7-2.6 2.4-6.1 3.9-7.8 2.6-3.1 7-14.7 7-18.7a21 21 0 0 1 2.5-6.7c1.4-2.6 2.5-5.5 2.5-6.6 0-1 1.3-4.2 3-7.1 1.6-2.8 3.8-8.9 4.9-13.5 1.1-4.5 2.9-9.2 4-10.4a41 41 0 0 0 6.2-18.5c-.1-2.2.5-4.1 1.8-5.5a41.9 41.9 0 0 0 6.1-17.7c0-1.8.7-4 1.6-5 1.8-2 6.3-14.5 6.4-17.6 0-1.2 1.1-4.3 2.5-6.9a21 21 0 0 0 2.5-6.7c0-1.1 1.3-4.3 3-7.2 1.6-2.8 3.8-8.9 4.9-13.5 1.1-4.5 2.9-9.2 4-10.4a41 41 0 0 0 6.2-18.5c-.1-2.2.5-4.1 1.8-5.5a41.9 41.9 0 0 0 6.1-17.7c0-1.8.7-4 1.6-5 1.8-2 6.3-14.5 6.4-17.7 0-1.3 1.1-4.4 2.5-7 1.4-2.6 2.5-5.5 2.5-6.6 0-1 1.3-4.2 3-7.1 1.6-2.8 3.8-8.9 4.9-13.5 1.1-4.5 2.9-9.2 4-10.4 2.6-2.9 7-15.9 6.3-19.1-.3-1.8.2-3.3 1.6-4.8a41 41 0 0 0 6.2-17.8c0-1.8.7-4 1.6-5 2-2.2 6.4-14.6 6.4-18.2 0-1.6.9-4.2 2-5.7 1.1-1.6 2.3-4.3 2.6-6.2.4-1.8 1.9-5.6 3.5-8.3a75 75 0 0 0 4.9-13.4 70.7 70.7 0 0 1 4.2-12.1c2.9-4.9 2-7-3-7-2.8 0-5 .8-7.6 2.9zm-296.5 241c2.5 1.1 8.4 2.5 13.2 3.1 11.1 1.4 12.3 1.8 17.7 7.5a36 36 0 0 0 8.8 6.7c2.6 1.2 5.1 3.3 6.3 5.3 1.1 1.8 3.1 4 4.4 4.9 1.4.9 2.9 3.4 3.6 5.8.7 2.4 2.7 5.7 4.4 7.4 2.6 2.4 3.5 4.4 4.4 9.6.6 3.5 1.1 7.9 1.1 9.7 0 1.8.7 4.5 1.5 6.1a37 37 0 0 1 1.9 10.3c.4 6.8.2 7.7-2.5 11.7-2.5 3.6-2.9 5.3-2.9 10.7v6.4l-5.7 6.2c-8.5 8.9-8.6 9.1-10.5 12.5-.9 1.7-3.1 3.8-5 4.7-1.8 1-4.3 3-5.6 4.5a14.3 14.3 0 0 1-6 4.1c-2 .6-5.1 2.4-6.7 3.8-2.6 2.3-4.8 2.9-13.8 4-7.2.9-13.8 1.1-20 .6l-12.7-.9-6.2-.4c-1.4-.1-4.4-1.7-6.7-3.6a18.5 18.5 0 0 0-8.3-4.1c-3.5-.6-5.6-2.1-11.5-7.8-4-3.9-7.7-8.4-8.3-10.2-.6-1.8-1.9-4-3-5s-2.9-4.6-4.1-8.2c-1.1-3.5-2.8-6.7-3.5-7-3.7-1.4-4.7-6.3-4.6-21.8.1-18.7 1.4-27.8 4.8-31.7 1.3-1.7 2.9-5 3.6-7.6 1.4-5.5 10-15.2 16.8-18.7 2.5-1.3 5.1-3.3 5.8-4.4a11 11 0 0 1 4.6-3.5c1.8-.7 4.3-2.7 5.4-4.3 1.9-2.7 2.9-3.1 8.9-3.7 14.3-1.4 19.9-2.2 21.8-3.4 2.7-1.6 3.6-1.5 8.6.7z"/></svg>